HIERARCHY
ROOT Hips
{
	OFFSET	0.00	0.00	0.00
	CHANNELS 6 Xposition Yposition Zposition Zrotation Xrotation Yrotation
	JOINT LeftUpLeg
	{
		OFFSET	 0.126116	-0.014019	-0.065224
		CHANNELS 3 Zrotation Xrotation Yrotation
		JOINT LeftLeg
		{
			OFFSET	 0.000000	 0.000000	 0.569914
			CHANNELS 3 Zrotation Xrotation Yrotation
			JOINT LeftFoot
			{
				OFFSET	 0.000000	 0.000000	 0.544423
				CHANNELS 3 Zrotation Xrotation Yrotation
				JOINT LeftToeBase
				{
					OFFSET	 0.000000	 0.000000	 0.207117
					CHANNELS 3 Zrotation Xrotation Yrotation
					End Site
					{
						OFFSET	 0.000000	 0.000000	 0.207117
					}
				}
			}
		}
	}
	JOINT RightUpLeg
	{
		OFFSET	-0.124023	-0.008373	-0.065224
		CHANNELS 3 Zrotation Xrotation Yrotation
		JOINT RightLeg
		{
			OFFSET	 0.000000	 0.000000	 0.570047
			CHANNELS 3 Zrotation Xrotation Yrotation
			JOINT RightFoot
			{
				OFFSET	 0.000000	 0.000000	 0.544354
				CHANNELS 3 Zrotation Xrotation Yrotation
				JOINT RightToeBase
				{
					OFFSET	 0.000000	 0.000000	 0.207540
					CHANNELS 3 Zrotation Xrotation Yrotation
					End Site
					{
						OFFSET	 0.000000	 0.000000	 0.207540
					}
				}
			}
		}
	}
	JOINT Spine
	{
		OFFSET	 0.000184	-0.007763	 0.117403
		CHANNELS 3 Zrotation Xrotation Yrotation
		JOINT Spine1
		{
			OFFSET	 0.000000	 0.000000	 0.137269
			CHANNELS 3 Zrotation Xrotation Yrotation
			JOINT Spine2
			{
				OFFSET	 0.000000	 0.000000	 0.156879
				CHANNELS 3 Zrotation Xrotation Yrotation
				JOINT LeftShoulder
				{
					OFFSET	 0.080501	-0.002496	 0.160144
					CHANNELS 3 Zrotation Xrotation Yrotation
					JOINT LeftArm
					{
						OFFSET	 0.000000	 0.000000	 0.164363
						CHANNELS 3 Zrotation Xrotation Yrotation
						JOINT LeftForeArm
						{
							OFFSET	 0.000000	 0.000000	 0.364576
							CHANNELS 3 Zrotation Xrotation Yrotation
							JOINT LeftHand
							{
								OFFSET	 0.000000	 0.000000	 0.360812
								CHANNELS 3 Zrotation Xrotation Yrotation
								JOINT LeftHandIndex1
								{
									OFFSET	 0.000000	 0.000000	 0.086006
									CHANNELS 3 Zrotation Xrotation Yrotation
									JOINT LeftHandIndex2
									{
										OFFSET	 0.000000	 0.000000	 0.047236
										CHANNELS 3 Zrotation Xrotation Yrotation
										JOINT LeftHandIndex3
										{
											OFFSET	-0.004284	-0.000551	 0.038166
											CHANNELS 3 Zrotation Xrotation Yrotation
											End Site
											{
												OFFSET	-0.004284	-0.000551	 0.038166
											}
										}
									}
								}
							}
						}
					}
				}
				JOINT Neck
				{
					OFFSET	 0.000000	 0.000000	 0.176489
					CHANNELS 3 Zrotation Xrotation Yrotation
					JOINT Head
					{
						OFFSET	 0.000000	-0.001747	 0.077940
						CHANNELS 3 Zrotation Xrotation Yrotation
						End Site
						{
							OFFSET	 0.000000	-0.001747	 0.077940
						}
					}
				}
				JOINT RightShoulder
				{
					OFFSET	-0.080363	 0.000306	 0.159706
					CHANNELS 3 Zrotation Xrotation Yrotation
					JOINT RightArm
					{
						OFFSET	 0.000000	 0.000000	 0.164196
						CHANNELS 3 Zrotation Xrotation Yrotation
						JOINT RightForeArm
						{
							OFFSET	 0.000000	 0.000000	 0.365611
							CHANNELS 3 Zrotation Xrotation Yrotation
							JOINT RightHand
							{
								OFFSET	 0.000000	 0.000000	 0.360648
								CHANNELS 3 Zrotation Xrotation Yrotation
								JOINT RightHandIndex1
								{
									OFFSET	 0.000000	 0.000000	 0.069977
									CHANNELS 3 Zrotation Xrotation Yrotation
									JOINT RightHandIndex2
									{
										OFFSET	 0.000000	 0.000000	 0.052305
										CHANNELS 3 Zrotation Xrotation Yrotation
										JOINT RightHandIndex3
										{
											OFFSET	 0.009002	-0.000782	 0.042196
											CHANNELS 3 Zrotation Xrotation Yrotation
											End Site
											{
												OFFSET	 0.009002	-0.000782	 0.042196
											}
										}
									}
								}
							}
						}
					}
				}
			}
		}
	}
}
MOTION
Frames:    4
Frame Time: 0.03333334
-18.781620	-43.117070	 0.734669	-49.187690	 9.323882	 3.066668	 5.555572	-20.482330	 175.416600	-4.316632	-36.415720	-1.073767	-1.223639	 83.563400	-0.543969	-2.331364	 36.719960	-0.190958	-1.880152	-22.383630	-178.950900	-2.007157	-40.227320	-0.899536	-1.526611	 86.758280	 0.806542	 2.393987	 25.977590	-0.051356	 0.367988	 5.323122	-1.555142	 0.811050	 3.966077	-2.058640	 0.656931	 1.621635	 0.034174	-101.410900	 88.595980	-167.705700	 54.245950	 68.176080	-64.075820	-4.835648	-4.286803	-17.502690	 7.859353	-3.278928	-5.311038	-2.209091	-11.319700	 6.671378	-5.213516	-0.193813	 3.566525	-1.378229	 35.397820	-2.634230	 0.747338	 1.383366	 0.659837	 0.527816	 3.125844	 0.340260	 96.647230	 87.907810	 170.198800	-51.212480	 75.696780	 64.550050	-2.205052	-12.732230	 23.205680	-25.747560	-4.195692	 9.577103	-7.403394	-4.234909	-37.026900	 5.070815	-0.697434	-9.399699	-2.350882	 35.473990	 5.254307
-18.787370	-43.118530	 0.733902	-48.832490	 8.972225	 2.888428	 5.369632	-20.036120	 175.368100	-4.257318	-36.493780	-1.152279	-1.325070	 83.767350	-0.552962	-2.326720	 37.226350	-0.203628	-1.721686	-20.807010	-178.976900	-1.648294	-38.335790	-0.601074	-1.329686	 86.413730	 0.966039	 2.394273	 25.892230	-0.053149	 0.027500	 5.246064	-1.527778	 0.701688	 4.367444	-2.049691	 0.730042	 2.045766	 0.035281	-100.731900	 88.615770	-168.609700	 53.223200	 68.578510	-62.782640	-4.766944	-4.215523	-16.567430	 8.217871	-3.464632	-5.302162	-3.500891	-11.840780	 3.648685	-5.213516	-0.193813	 3.566525	-1.378229	 35.397820	-2.634230	 0.758214	 1.613882	 0.788218	 0.687158	 3.706950	 0.318919	 96.964640	 87.977360	 169.869700	-52.364720	 75.659180	 65.313330	-2.497042	-12.633250	 23.094060	-25.685760	-4.345279	 9.583319	-7.288855	-4.222153	-36.742800	 5.070815	-0.697434	-9.399699	-2.350882	 35.473990	 5.254307
-18.794520	-43.119190	 0.733813	-48.296540	 8.858805	 2.794107	 5.075534	-19.573110	 175.223200	-4.056074	-36.269300	-1.193974	-1.421090	 83.724430	-0.532702	-2.322613	 37.659460	-0.214570	-2.039331	-19.139630	-179.265100	-1.041827	-35.900790	-0.465645	-1.438400	 86.480700	 1.303171	 2.391292	 26.749170	-0.035093	-0.466998	 4.978603	-1.698050	 0.568879	 4.746794	-2.034913	 0.758985	 2.550579	 0.033340	-99.494280	 88.540890	-170.051100	 52.630490	 69.192030	-62.238530	-4.979659	-4.169757	-15.840430	 8.591367	-3.774333	-5.301576	-3.273274	-11.965230	 4.173067	-5.213516	-0.193813	 3.566525	-1.378229	 35.397820	-2.634230	 0.735325	 1.856827	 1.003357	 0.802425	 4.438993	 0.198919	 97.730480	 88.140800	 169.104900	-53.061970	 75.778270	 65.382880	-2.627810	-12.504200	 23.074170	-25.499010	-4.619365	 9.599360	-7.145655	-4.064263	-36.493290	 5.070815	-0.697434	-9.399699	-2.350882	 35.473990	 5.254307
-18.800090	-43.118850	 0.734267	-48.669380	 8.881868	 3.305944	 4.902780	-19.163620	 174.698600	-4.201622	-35.729320	-1.378965	-1.496632	 83.364400	-0.758316	-2.322748	 37.644440	-0.214195	-2.413157	-18.427610	-179.844600	-1.489883	-34.729970	-0.976498	-2.084571	 86.130870	 1.217170	 2.397557	 24.818870	-0.075518	-0.727753	 4.742836	-2.354077	 0.806175	 4.904147	-2.162965	 0.848153	 2.822918	 0.035243	-98.728100	 88.372980	-170.767700	 52.227020	 70.134090	-62.120240	-5.895399	-4.179742	-15.888310	 8.668549	-4.216427	-5.317436	-3.531697	-12.367480	 3.571664	-5.213516	-0.193813	 3.566525	-1.378229	 35.397820	-2.634230	 0.918346	 2.186608	 1.146488	 0.783316	 4.639421	 0.303696	 98.370020	 88.326140	 168.599200	-53.315220	 75.856380	 65.200930	-2.630378	-12.351460	 23.131460	-25.218470	-5.036985	 9.625913	-7.035125	-3.822491	-36.389720	 5.070815	-0.697434	-9.399699	-2.350882	 35.473990	 5.254307
